<svg width="currentWidth" viewBox="0 0 32 32" fill="currentColor"  color="#D64751" xmlns="http://www.w3.org/2000/svg">
<path fill-rule="evenodd" clip-rule="evenodd" d="M16 32C24.8365 32 32 24.8365 32 16C32 7.16344 24.8365 0 16 0C7.16344 0 0 7.16344 0 16C0 24.8365 7.16344 32 16 32ZM12.3316 10.0688C11.7067 9.44401 10.6937 9.44401 10.0688 10.0688C9.44401 10.6937 9.44401 11.7067 10.0688 12.3316L13.7375 16.0002L10.0688 19.6689C9.44401 20.2937 9.44401 21.3068 10.0688 21.9316C10.6937 22.5564 11.7067 22.5564 12.3316 21.9316L16.0002 18.2629L19.6689 21.9316C20.2937 22.5564 21.3068 22.5564 21.9316 21.9316C22.5564 21.3068 22.5564 20.2937 21.9316 19.6689L18.2629 16.0002L21.9316 12.3316C22.5564 11.7067 22.5564 10.6937 21.9316 10.0688C21.3068 9.44401 20.2937 9.44401 19.6689 10.0688L16.0002 13.7375L12.3316 10.0688Z"/>
</svg>
